# xmcd CD database file
#
# Track frame offsets:
#	183
#	20428
#	37730
#	59418
#
# Disc length: 1004 seconds
#
# Revision: 0
# Processed by: cddbd v1.4PL0 Copyright (c) Steve Scherf et al.
# Submitted via: CDex 1.50Beta7
#
DISCID=2703ea04
DTITLE=Bonnie Raitt - You
DYEAR=1900
DGENRE=Country
TTITLE0=You
TTITLE1=Thing Called Love
TTITLE2=Longing In Their Hearts
TTITLE3=Good Man, Good Woman
EXTD=
EXTT0=
EXTT1=
EXTT2=
EXTT3=
PLAYORDER=
